<?xml version="1.0" encoding="utf-8"?>
<!-- Generator: Adobe Illustrator 16.0.0, SVG Export Plug-In . SVG Version: 6.00 Build 0)  -->
<!DOCTYPE svg PUBLIC "-//W3C//DTD SVG 1.1//EN" "http://www.w3.org/Graphics/SVG/1.1/DTD/svg11.dtd">
<svg xmlns="http://www.w3.org/2000/svg" xmlns:xlink="http://www.w3.org/1999/xlink" version="1.1" id="FirstAid02" x="0px" y="0px" width="512" height="512" viewBox="0 0 144.083 144" enable-background="new 0 0 144.083 144" xml:space="preserve">
<path d="M110.857,48.064H92.416v-4.628c0-4.962-4.037-9-9-9h-22.75c-4.962,0-9,4.038-9,9v4.628h-18.44  c-4.33,0-7.852,3.522-7.852,7.852v45.794c0,4.33,3.522,7.853,7.852,7.853h77.631c4.329,0,7.852-3.522,7.852-7.853V55.917  C118.708,51.587,115.186,48.064,110.857,48.064z M57.666,43.437c0-1.654,1.346-3,3-3h22.75c1.654,0,3,1.346,3,3v4.628h-28.75V43.437  z M33.226,54.064h77.631c1.021,0,1.852,0.831,1.852,1.852V74H89.773v-2.029c0-1.657-1.343-3-3-3h-5.889v-5.888c0-1.657-1.343-3-3-3  H66.197c-1.657,0-3,1.343-3,3v5.888H57.31c-1.657,0-3,1.343-3,3V74H31.374V55.917C31.374,54.896,32.205,54.064,33.226,54.064z   M66.197,80.658H60.31v-5.688h5.888c1.657,0,3-1.343,3-3v-5.888h5.687v5.888c0,1.657,1.343,3,3,3h5.889v5.688h-5.889  c-1.657,0-3,1.343-3,3v5.889h-5.687v-5.889C69.197,82.001,67.854,80.658,66.197,80.658z M110.857,103.563H33.226  c-1.021,0-1.852-0.831-1.852-1.853V80H54.31v3.658c0,1.657,1.343,3,3,3h5.888v5.889c0,1.657,1.343,3,3,3h11.687c1.657,0,3-1.343,3-3  v-5.889h5.889c1.657,0,3-1.343,3-3V80h22.936v21.711C112.708,102.732,111.877,103.563,110.857,103.563z"/>
</svg>
