<?xml version="1.0" encoding="utf-8"?>
<!-- Generator: Adobe Illustrator 16.0.0, SVG Export Plug-In . SVG Version: 6.00 Build 0)  -->
<!DOCTYPE svg PUBLIC "-//W3C//DTD SVG 1.1//EN" "http://www.w3.org/Graphics/SVG/1.1/DTD/svg11.dtd">
<svg xmlns="http://www.w3.org/2000/svg" xmlns:xlink="http://www.w3.org/1999/xlink" version="1.1" id="Drugs" x="0px" y="0px" width="512" height="512" viewBox="0 0 144.083 144" enable-background="new 0 0 144.083 144" xml:space="preserve">
<path d="M111.706,67.261c-3.06-3.061-6.758-5.25-10.793-6.451c2.168-7.387,0.367-15.697-5.449-21.515  c-4.107-4.108-9.569-6.371-15.379-6.371s-11.272,2.263-15.379,6.371L31.233,72.767c-8.481,8.48-8.481,22.279,0,30.76  c4.108,4.108,9.57,6.371,15.38,6.371s11.272-2.263,15.38-6.371l7.988-7.989c1.248,2.915,3.053,5.646,5.428,8.021  c4.848,4.848,11.293,7.518,18.148,7.518s13.301-2.67,18.148-7.518C121.712,93.552,121.712,77.269,111.706,67.261z M109.406,97.016  L81.95,69.559c3.351-2.464,7.371-3.815,11.608-3.815c5.253,0,10.191,2.046,13.905,5.761  C114.409,78.449,115.041,89.326,109.406,97.016z M68.947,43.537c2.975-2.975,6.93-4.613,11.137-4.613s8.162,1.639,11.137,4.613  c4.389,4.389,5.615,10.736,3.728,16.245c-0.462-0.024-0.925-0.039-1.391-0.039c-6.856,0-13.302,2.67-18.149,7.518  c-2.229,2.229-3.958,4.77-5.194,7.481L53.979,58.506L68.947,43.537z M57.75,99.284c-2.975,2.975-6.931,4.613-11.138,4.613  s-8.162-1.639-11.137-4.613c-6.142-6.142-6.142-16.134,0-22.275l14.261-14.261l18.509,18.509c-0.41,2.526-0.446,5.101-0.103,7.634  L57.75,99.284z M79.651,99.316c-6.945-6.945-7.578-17.824-1.941-25.513l27.457,27.457c-3.352,2.464-7.372,3.815-11.609,3.815  C88.304,105.076,83.366,103.03,79.651,99.316z"/>
</svg>
