<?xml version="1.0" encoding="iso-8859-1"?>
<!-- Generator: Adobe Illustrator 22.1.0, SVG Export Plug-In . SVG Version: 6.00 Build 0)  -->
<svg xmlns="http://www.w3.org/2000/svg" xmlns:xlink="http://www.w3.org/1999/xlink" version="1.1" id="Layer_3" x="0px" y="0px" viewBox="0 0 64 64" style="enable-background:new 0 0 64 64;" xml:space="preserve" width="512" height="512">
<g>
	<path d="M62,1H2C1.448,1,1,1.448,1,2v60c0,0.552,0.448,1,1,1h60c0.552,0,1-0.448,1-1V2C63,1.448,62.552,1,62,1z M61,61H3V3h58V61z"/>
	<path d="M9,10v14c0,0.552,0.448,1,1,1h14c0.552,0,1-0.448,1-1V10c0-0.552-0.448-1-1-1H10C9.448,9,9,9.448,9,10z M11,11h12v12H11V11   z"/>
	<path d="M20,13h-6c-0.552,0-1,0.448-1,1v6c0,0.552,0.448,1,1,1h6c0.552,0,1-0.448,1-1v-6C21,13.448,20.552,13,20,13z M19,19h-4v-4   h4V19z"/>
	<path d="M24,39H10c-0.552,0-1,0.448-1,1v14c0,0.552,0.448,1,1,1h14c0.552,0,1-0.448,1-1V40C25,39.448,24.552,39,24,39z M23,53H11   V41h12V53z"/>
	<path d="M14,51h6c0.552,0,1-0.448,1-1v-6c0-0.552-0.448-1-1-1h-6c-0.552,0-1,0.448-1,1v6C13,50.552,13.448,51,14,51z M15,45h4v4h-4   V45z"/>
	<path d="M55,54V40c0-0.552-0.448-1-1-1H40c-0.552,0-1,0.448-1,1v14c0,0.552,0.448,1,1,1h14C54.552,55,55,54.552,55,54z M53,53H41   V41h12V53z"/>
	<path d="M44,51h6c0.552,0,1-0.448,1-1v-6c0-0.552-0.448-1-1-1h-6c-0.552,0-1,0.448-1,1v6C43,50.552,43.448,51,44,51z M45,45h4v4h-4   V45z"/>
	<path d="M28,55h4c0.552,0,1-0.448,1-1v-5h3c0.552,0,1-0.448,1-1v-4c0-0.552-0.448-1-1-1h-8c-0.552,0-1,0.448-1,1v10   C27,54.552,27.448,55,28,55z M29,45h6v2h-3c-0.552,0-1,0.448-1,1v5h-2V45z"/>
	<path d="M28,25h4c0.552,0,1-0.448,1-1v-9h3c0.552,0,1-0.448,1-1v-4c0-0.552-0.448-1-1-1h-8c-0.552,0-1,0.448-1,1v14   C27,24.552,27.448,25,28,25z M29,11h6v2h-3c-0.552,0-1,0.448-1,1v9h-2V11z"/>
	<path d="M35,20v4c0,0.552,0.448,1,1,1h8c0.552,0,1-0.448,1-1V10c0-0.552-0.448-1-1-1h-4c-0.552,0-1,0.448-1,1v9h-3   C35.448,19,35,19.448,35,20z M37,21h3c0.552,0,1-0.448,1-1v-9h2v12h-6V21z"/>
	<rect x="35" y="53" width="2" height="2"/>
	<path d="M28,41h4c0.552,0,1-0.448,1-1V28c0-0.552-0.448-1-1-1h-4c-0.552,0-1,0.448-1,1v12C27,40.552,27.448,41,28,41z M29,29h2v10   h-2V29z"/>
	<path d="M44,33c0.552,0,1-0.448,1-1v-4c0-0.552-0.448-1-1-1h-8c-0.552,0-1,0.448-1,1v4c0,0.552,0.448,1,1,1H44z M37,29h6v2h-6V29z"/>
	<path d="M35,37h13c0.552,0,1-0.448,1-1v-9h-2v8H35V37z"/>
	<path d="M55,29v-2h-3c-0.552,0-1,0.448-1,1v8c0,0.552,0.448,1,1,1h3v-2h-2v-6H55z"/>
	<path d="M10,37h4c0.552,0,1-0.448,1-1v-3h5c0.552,0,1-0.448,1-1v-4c0-0.552-0.448-1-1-1H10c-0.552,0-1,0.448-1,1v8   C9,36.552,9.448,37,10,37z M11,29h8v2h-5c-0.552,0-1,0.448-1,1v3h-2V29z"/>
	<path d="M23,35h-6v2h7c0.552,0,1-0.448,1-1v-9h-2V35z"/>
	<path d="M47,24c0,0.552,0.448,1,1,1h6c0.552,0,1-0.448,1-1v-4c0-0.552-0.448-1-1-1h-6c-0.552,0-1,0.448-1,1V24z M49,21h4v2h-4V21z"/>
	<path d="M55,9h-7c-0.552,0-1,0.448-1,1v7h2v-6h6V9z"/>
	<path d="M51,15v2h3c0.552,0,1-0.448,1-1v-3h-2v2H51z"/>
	<path d="M57,57H44v2h14c0.552,0,1-0.448,1-1V44h-2V57z"/>
	<path d="M7,7h13V5H6C5.448,5,5,5.448,5,6v14h2V7z"/>
	<path d="M57,20h2V6c0-0.552-0.448-1-1-1H44v2h13V20z"/>
	<path d="M6,59h14v-2H7V44H5v14C5,58.552,5.448,59,6,59z"/>
</g>
</svg>
