<?xml version="1.0" encoding="utf-8"?>
<!-- Generator: Adobe Illustrator 16.0.0, SVG Export Plug-In . SVG Version: 6.00 Build 0)  -->
<!DOCTYPE svg PUBLIC "-//W3C//DTD SVG 1.1//EN" "http://www.w3.org/Graphics/SVG/1.1/DTD/svg11.dtd">
<svg xmlns="http://www.w3.org/2000/svg" xmlns:xlink="http://www.w3.org/1999/xlink" version="1.1" id="Medical_x5F_Record" x="0px" y="0px" width="512" height="512" viewBox="0 0 144.083 144" enable-background="new 0 0 144.083 144" xml:space="preserve">
<path d="M104.868,28.676H92.709H44.078c-7.018,0-12.727,5.709-12.727,12.727v61.195c0,7.018,5.709,12.727,12.727,12.727h48.631  h12.158c4.336,0,7.863-3.527,7.863-7.863V36.539C112.731,32.203,109.204,28.676,104.868,28.676z M44.078,109.324  c-3.709,0-6.727-3.018-6.727-6.727V41.402c0-3.709,3.018-6.727,6.727-6.727h48.631c1.027,0,1.863,0.836,1.863,1.863v70.922  c0,1.027-0.836,1.863-1.863,1.863H44.078z M106.731,107.461c0,1.027-0.836,1.863-1.863,1.863h-4.527  c0.146-0.599,0.232-1.221,0.232-1.863V36.539c0-0.643-0.086-1.265-0.232-1.863h4.527c1.027,0,1.863,0.836,1.863,1.863V107.461z"/>
<path d="M82.958,53.082h-6v-6c0-1.657-1.343-3-3-3H62.123c-1.657,0-3,1.343-3,3v6h-6c-1.657,0-3,1.343-3,3v11.834  c0,1.657,1.343,3,3,3h6v6c0,1.657,1.343,3,3,3h11.834c1.657,0,3-1.343,3-3v-6h6c1.657,0,3-1.343,3-3V56.082  C85.958,54.425,84.615,53.082,82.958,53.082z M79.958,64.916h-6c-1.657,0-3,1.343-3,3v6h-5.834v-6c0-1.657-1.343-3-3-3h-6v-5.834h6  c1.657,0,3-1.343,3-3v-6h5.834v6c0,1.657,1.343,3,3,3h6V64.916z"/>
<rect x="55.063" y="87.501" width="26" height="6"/>
<rect x="55.063" y="96.501" width="26" height="6"/>
</svg>
